<?xml version="1.0" standalone="no"?>
<!DOCTYPE svg PUBLIC "-//W3C//DTD SVG 20010904//EN"
 "http://www.w3.org/TR/2001/REC-SVG-20010904/DTD/svg10.dtd">
<svg version="1.0" xmlns="http://www.w3.org/2000/svg"
 width="512.000000pt" height="512.000000pt" viewBox="0 0 512.000000 512.000000"
 preserveAspectRatio="xMidYMid meet">
<metadata>
Created by potrace 1.14, written by Peter Selinger 2001-2017
</metadata>
<g transform="translate(0.000000,512.000000) scale(0.100000,-0.100000)"
fill="#000000" stroke="none">
<path d="M0 2560 l0 -2560 2560 0 2560 0 0 2560 0 2560 -2560 0 -2560 0 0
-2560z m3589 1424 c195 -19 356 -36 356 -37 1 -1 -15 -171 -36 -377 -21 -206
-38 -414 -39 -462 0 -189 50 -298 138 -298 50 0 93 22 135 71 136 155 196 192
322 197 116 5 179 -21 266 -107 111 -111 159 -238 159 -419 0 -169 -53 -298
-166 -401 -139 -127 -320 -155 -449 -69 -25 17 -78 68 -116 114 -79 95 -92
104 -147 104 -66 0 -108 -66 -117 -187 -3 -37 7 -264 23 -503 16 -239 27 -437
26 -438 -1 -2 -206 -17 -454 -33 -473 -30 -539 -29 -614 6 -49 23 -66 50 -66
104 0 42 4 49 52 91 128 112 184 175 201 224 73 215 -101 473 -363 537 -70 17
-219 17 -290 0 -202 -48 -357 -201 -368 -364 -10 -131 43 -239 168 -340 77
-62 100 -101 100 -165 0 -86 -120 -142 -303 -142 -78 1 -824 73 -832 81 -2 2
14 182 36 399 42 418 45 517 14 618 -9 29 -28 67 -44 84 -23 26 -34 30 -74 30
-65 -2 -91 -18 -178 -114 -118 -129 -219 -172 -350 -148 -153 27 -287 166
-334 345 -23 89 -20 276 5 357 37 120 141 248 240 296 171 82 309 59 422 -69
136 -154 131 -150 174 -156 33 -4 45 -1 71 21 72 60 76 125 42 661 -16 247
-27 450 -26 452 6 6 792 53 882 53 121 0 177 -14 221 -55 63 -59 43 -123 -64
-208 -142 -114 -167 -157 -167 -292 0 -93 2 -105 33 -168 21 -43 56 -91 91
-126 261 -261 791 -165 892 160 24 78 24 125 -2 202 -27 79 -72 140 -149 202
-79 63 -100 98 -100 164 0 60 23 89 93 116 110 41 163 40 686 -11z"/>
</g>
</svg>
